<svg version="1.2" baseProfile="tiny-ps" class="scaling-svg sub-logo-svg" xmlns="http://www.w3.org/2000/svg" viewBox="0 0 500 500"><path fill="#585858" d="M500 249.997C500 388.068 388.066 500 250 500S0 388.068 0 249.997C0 111.931 111.934 0 250 0s250 111.931 250 249.997z"/><path fill="#FFF" d="M268.148 238.927h-9.793v-37.806l-40.019-61.12h11.741l33.151 50.758 32.649-50.758h11.712l-39.441 61.105zM371.979 238.927c-12.146 0-25.297-5.471-33.518-13.937l-2.508-2.576 6.946-7.033 2.547 2.716c6.204 6.643 16.624 10.926 26.532 10.926 14.887 0 24.506-6.285 24.506-16.021.097-11.968-8.953-15.61-23.869-20.178-14.183-4.352-30.266-9.282-30.266-28.857 0-14.332 13.054-23.966 32.475-23.966 9.069 0 19.296 2.856 26.04 7.27l2.972 1.944-5.094 8.273-3.068-1.997c-5.2-3.396-13.392-5.581-20.85-5.581-13.786 0-22.691 5.518-22.691 14.057 0 11.631 8.934 14.954 23.512 19.416 13.72 4.197 30.776 9.417 30.623 29.639.001 15.485-13.777 25.905-34.289 25.905z"/><path fill="#ACD9CE" d="M122.763 344.064h-9.784v-24.91H88.368v-9.903h24.611V284.34h9.784v24.911h24.612v9.903h-24.612z"/><path fill="#FFF" d="M179.715 260.871h9.793v98.925h-9.793zM273.252 359.999c-27.622 0-50.092-22.21-50.092-49.523 0-27.236 22.47-49.397 50.092-49.397s50.092 22.161 50.092 49.397c0 27.313-22.47 49.523-50.092 49.523zm0-89.018c-22.229 0-40.309 17.719-40.309 39.494 0 21.848 18.08 39.629 40.309 39.629s40.309-17.781 40.309-39.629c0-21.775-18.08-39.494-40.309-39.494zM369.876 359.796H359.1l40.54-89.017h-53.672v-9.908h65.346l-.328 8.441z"/><path fill="#FCE1D8" d="M283.141 310.654c0 5.528-4.429 10.01-9.879 10.01-5.461 0-9.88-4.481-9.88-10.01 0-5.514 4.419-9.991 9.88-9.991 5.45 0 9.879 4.478 9.879 9.991z"/><path fill="#FFF" d="M168.031 239.013l-58.467-81.52v81.52h-9.793v-99.012h9.321l70.836 99.012z"/></svg>