<?xml version="1.0" encoding="iso-8859-1"?>
<!-- Generator: Adobe Illustrator 16.0.0, SVG Export Plug-In . SVG Version: 6.00 Build 0)  -->
<!DOCTYPE svg PUBLIC "-//W3C//DTD SVG 1.1//EN" "http://www.w3.org/Graphics/SVG/1.1/DTD/svg11.dtd">
<svg version="1.1" id="Capa_1" xmlns="http://www.w3.org/2000/svg" xmlns:xlink="http://www.w3.org/1999/xlink" x="0px" y="0px"
	 width="412.766px" height="412.767px" viewBox="0 0 412.766 412.767" style="enable-background:new 0 0 412.766 412.767;"
	 xml:space="preserve">
<g>
	<path d="M95.373,80.2c0,26.336-21.355,47.683-47.685,47.683c-26.327,0-47.682-21.347-47.682-47.683
		c0-26.335,21.355-47.682,47.682-47.682C74.018,32.513,95.373,53.859,95.373,80.2z M47.682,274.588
		C21.355,274.588,0,295.938,0,322.27c0,26.333,21.355,47.683,47.682,47.683c26.335,0,47.685-21.35,47.685-47.683
		C95.367,295.938,74.018,274.588,47.682,274.588z M166.769,65.312h231.895c7.784,0,14.103-6.313,14.103-14.104
		c0-7.79-6.312-14.103-14.103-14.103H166.769c-7.784,0-14.103,6.313-14.103,14.103C152.666,58.999,158.985,65.312,166.769,65.312z
		 M166.769,134.257h150.426c7.791,0,14.104-6.316,14.104-14.103c0-7.791-6.312-14.103-14.104-14.103H166.769
		c-7.784,0-14.103,6.307-14.103,14.103C152.666,127.947,158.985,134.257,166.769,134.257z M398.664,283.1H166.769
		c-7.784,0-14.103,6.312-14.103,14.103s6.319,14.104,14.103,14.104h231.895c7.784,0,14.103-6.313,14.103-14.104
		S406.448,283.1,398.664,283.1z M317.195,352.043H166.769c-7.784,0-14.103,6.307-14.103,14.103c0,7.79,6.319,14.103,14.103,14.103
		h150.426c7.791,0,14.104-6.312,14.104-14.103S324.98,352.043,317.195,352.043z"/>
</g>
<g>
</g>
<g>
</g>
<g>
</g>
<g>
</g>
<g>
</g>
<g>
</g>
<g>
</g>
<g>
</g>
<g>
</g>
<g>
</g>
<g>
</g>
<g>
</g>
<g>
</g>
<g>
</g>
<g>
</g>
</svg>
