<?xml version="1.0" encoding="utf-8"?>
<!-- Generator: Adobe Illustrator 16.0.4, SVG Export Plug-In . SVG Version: 6.00 Build 0)  -->
<!DOCTYPE svg PUBLIC "-//W3C//DTD SVG 1.1//EN" "http://www.w3.org/Graphics/SVG/1.1/DTD/svg11.dtd">
<svg version="1.1" id="gr_x5F_icon04_x5F_imageOptimize"
	 xmlns="http://www.w3.org/2000/svg" xmlns:xlink="http://www.w3.org/1999/xlink" x="0px" y="0px" width="455px" height="500px"
	 viewBox="0 0 455 500" enable-background="new 0 0 455 500" xml:space="preserve">
<g>
	<path id="gr_78_" fill="#F3BA48" d="M451.959,345.021c0,19.004-13.464,42.328-29.924,51.83l-164.58,95.024
		c-16.46,9.503-43.388,9.503-59.848,0L33.026,396.851c-16.459-9.502-29.923-32.826-29.923-51.83V154.977
		c0-19.004,13.463-42.328,29.923-51.83L197.607,8.125c16.46-9.502,43.388-9.502,59.848,0l164.58,95.021
		c16.46,9.502,29.924,32.826,29.924,51.83V345.021z"/>
	<g>
		<g>
			<g>
				<path fill="#F3BA48" d="M327.088,337.459c-2.625,12.359-14.786,20.252-27.149,17.627l-143.646-30.534
					c-12.357-2.629-20.253-14.783-17.628-27.146l36.483-171.633c2.625-12.367,14.78-20.259,27.144-17.634l143.653,30.535
					c12.363,2.625,20.252,14.783,17.627,27.143L327.088,337.459z"/>
				<path fill="#FFFFFF" d="M304.716,359.044c-1.836,0-3.685-0.192-5.493-0.577l-143.653-30.534
					c-14.205-3.023-23.31-17.04-20.286-31.246l36.483-171.633c2.564-12.093,13.396-20.874,25.746-20.874
					c1.836,0,3.686,0.192,5.5,0.577l143.653,30.534c6.877,1.461,12.782,5.517,16.615,11.422c3.826,5.898,5.129,12.937,3.671,19.821
					l-36.483,171.644C327.897,350.268,317.066,359.044,304.716,359.044z M197.513,111.09c-9.104,0-17.094,6.475-18.984,15.4
					l-36.482,171.633c-2.228,10.48,4.48,20.819,14.968,23.047l143.646,30.534c10.325,2.217,20.867-4.714,23.047-14.965
					l36.483-171.644c1.08-5.075,0.121-10.268-2.713-14.621c-2.821-4.353-7.181-7.346-12.256-8.422l-143.652-30.535
					C200.232,111.232,198.869,111.09,197.513,111.09z"/>
			</g>
			<path fill="#FFFFFF" d="M316.526,313.761l-158.574-33.707l33.71-158.574l158.574,33.703L316.526,313.761z"/>
		</g>
		<g>
			<g>
				<path fill="#F3BA48" d="M303.73,348.783c1.539,12.545-7.369,23.964-19.922,25.503l-145.772,17.897
					c-12.539,1.542-23.957-7.38-25.496-19.926L91.16,198.095c-1.552-12.546,7.37-23.965,19.922-25.507l145.772-17.897
					c12.539-1.539,23.957,7.383,25.496,19.929L303.73,348.783z"/>
				<path fill="#FFFFFF" d="M135.223,395.812c-13.274,0-24.498-9.944-26.11-23.132L87.731,198.516
					c-0.863-6.981,1.047-13.882,5.379-19.429c4.333-5.544,10.562-9.07,17.547-9.928l145.771-17.897
					c14.625-1.792,27.603,8.689,29.351,22.936l21.38,174.164c0.863,6.984-1.053,13.885-5.386,19.43
					c-4.325,5.544-10.555,9.07-17.54,9.924l-145.771,17.897C137.375,395.747,136.289,395.812,135.223,395.812z M259.661,157.974
					c-0.782,0-1.586,0.047-2.389,0.145l-145.771,17.897c-5.156,0.634-9.745,3.236-12.944,7.326
					c-3.198,4.09-4.603,9.178-3.968,14.331l21.38,174.163c1.288,10.512,10.817,18.212,21.649,16.92l145.771-17.898
					c5.156-0.634,9.746-3.232,12.944-7.322c3.192-4.09,4.603-9.178,3.969-14.33l-21.38-174.164
					C277.722,165.31,269.447,157.974,259.661,157.974z"/>
			</g>
			<path fill="#FFFFFF" d="M105.373,188.663l19.747,160.909l160.916-19.76l-19.761-160.91L105.373,188.663z M200.759,300.395
				c-4.157,0.51-52.072-25.602-55.339-52.218c-3.186-25.918,28.452-36.129,45.445-18.826c0.459,0.462,1.013,1.222,1.31,1.185
				c0.338-0.041,0.635-0.881,0.958-1.434c12.31-20.938,45.486-18.69,48.672,7.241C245.071,262.959,204.876,299.889,200.759,300.395z
				"/>
		</g>
	</g>
</g>
</svg>
