<?xml version="1.0" encoding="iso-8859-1"?>
<!-- Generator: Adobe Illustrator 16.0.0, SVG Export Plug-In . SVG Version: 6.00 Build 0)  -->
<!DOCTYPE svg PUBLIC "-//W3C//DTD SVG 1.1//EN"
        "http://www.w3.org/Graphics/SVG/1.1/DTD/svg11.dtd">
<svg version="1.1" id="Capa_1" xmlns="http://www.w3.org/2000/svg" xmlns:xlink="http://www.w3.org/1999/xlink" x="0px" y="0px"
	 style="vertical-align: top;" width="16px" height="16px" viewBox="0 0 510 510" style="enable-background:new 0 0 510 510;" xml:space="preserve">
<g>
	<g id="camera">
		<path d="M188.7,216.75L311.1,5.1C293.25,2.55,272.85,0,255,0C193.8,0,137.7,20.4,94.35,58.65L188.7,219.3V216.75z M497.25,178.5
			c-22.95-73.95-79.05-135.15-153-160.65l-91.8,160.65H497.25z M504.9,204H313.65l7.649,12.75L443.7,428.4
			C484.5,382.5,510,321.3,510,255C510,237.15,507.45,219.3,504.9,204z M165.75,255L66.3,81.6C25.5,127.5,0,188.7,0,255
			c0,17.85,2.55,35.7,5.1,51h191.25L165.75,255z M12.75,331.5c22.95,73.95,79.05,135.15,153,160.65L260.1,331.5H12.75L12.75,331.5z
			 M298.35,331.5L198.9,504.9c17.85,5.1,35.7,5.1,56.1,5.1c61.2,0,117.3-20.4,160.65-58.65L321.3,290.7L298.35,331.5z"/>
	</g>
</g>
</svg>
