<?xml version="1.0" encoding="utf-8"?>
<!-- Generator: Adobe Illustrator 25.0.1, SVG Export Plug-In . SVG Version: 6.00 Build 0)  -->
<svg version="1.1" id="gr_x5F_icon04_x5F_imageOptimize"
	 xmlns="http://www.w3.org/2000/svg" xmlns:xlink="http://www.w3.org/1999/xlink" x="0px" y="0px" viewBox="0 0 250 250"
	 style="enable-background:new 0 0 250 250;" xml:space="preserve">
<style type="text/css">
	.st0{fill:#FFFFFF;}
</style>
<g id="gr_x5F_big_3_">
	<path class="st0" d="M245.5,44.3L226,200.9c-1.4,11.3-11.7,19.4-22.9,17.9l-8.8-1.1c1.8-3.5,2.6-7.6,2.1-11.8l-4.3-35.5l16.4,2
		l16.1-130.3L94.2,26l-1.6,12.9l-21.4,2.6L73.5,23C74.9,11.7,85.1,3.7,96.4,5.1l131.1,16.2C238.9,22.7,246.9,33,245.5,44.3z"/>
	<path class="st0" d="M140.6,104.7c2.9,23.9-33.2,57.1-36.9,57.6c-3.7,0.5-46.8-23-49.8-47C51.1,92,79.5,82.9,94.8,98.4
		c0.4,0.4,0.9,1.1,1.2,1.1s0.6-0.8,0.9-1.3C107.9,79.4,137.8,81.4,140.6,104.7z M196.3,205.8L177.1,49.2
		c-1.3-11.3-11.6-19.3-22.9-17.9L23.1,47.4C11.8,48.8,3.8,59,5.2,70.3l19.2,156.7c1.4,11.3,11.6,19.3,22.9,17.9l131.1-16.1
		C189.7,227.4,197.7,217.1,196.3,205.8z M42,198.4L26,68.1l130.3-15.9l16,130.3L42,198.4z"/>
</g>
</svg>
