<?xml version="1.0" encoding="iso-8859-1"?>
<!-- Generator: Adobe Illustrator 19.0.0, SVG Export Plug-In . SVG Version: 6.00 Build 0)  -->
<svg version="1.1" id="Layer_1" xmlns="http://www.w3.org/2000/svg" xmlns:xlink="http://www.w3.org/1999/xlink" x="0px" y="0px"
	 viewBox="0 0 512 512" style="enable-background:new 0 0 512 512;" xml:space="preserve">
<path style="fill:#2EA9D3;" d="M256,0c141.384,0,256,114.616,256,256c0,141.389-114.616,256-256,256S0,397.384,0,256
	S114.616,0,256,0z"/>
<path style="fill:#2998BE;" d="M74.711,169.682l261.78-70.144c8.259-2.217,16.742,2.632,18.934,10.824l51.676,192.855
	c2.196,8.197-2.719,16.63-10.988,18.847l-261.775,70.144c-8.264,2.217-16.742-2.632-18.934-10.824l-51.676-192.86
	C61.532,180.332,66.452,171.894,74.711,169.682z M117.955,169.027h271.017c8.55,0,15.483,6.876,15.483,15.36v199.66
	c0,8.479-6.932,15.36-15.483,15.36H117.955c-8.556,0-15.483-6.881-15.483-15.36v-199.66
	C102.472,175.903,109.399,169.027,117.955,169.027L117.955,169.027z"/>
<path style="fill:#268BAE;" d="M404.454,316.38v-23.03l-33.311-124.324H117.955c-8.556,0-15.483,6.876-15.483,15.36v148.721
	l12.933,48.276c2.196,8.197,10.67,13.041,18.934,10.824l261.775-70.139C399.606,321.132,402.447,319.048,404.454,316.38
	L404.454,316.38z"/>
<path style="fill:#EDEDED;" d="M79.831,159.442l261.78-70.144c8.259-2.217,16.742,2.632,18.934,10.824l51.676,192.855
	c2.196,8.197-2.719,16.63-10.988,18.847l-261.775,70.144c-8.264,2.217-16.742-2.632-18.934-10.824l-51.676-192.86
	C66.652,170.092,71.572,161.654,79.831,159.442z"/>
<path style="fill:#D5D5D5;" d="M404.454,310.533v-46.536l-25.446-94.971H117.955c-8.556,0-15.483,6.876-15.483,15.36v119.368
	l18.053,67.384c2.196,8.197,10.67,13.041,18.934,10.824l261.775-70.139C402.381,311.521,403.446,311.066,404.454,310.533
	L404.454,310.533z"/>
<path style="fill:#4681A0;" d="M101.274,174.776l229.279-61.435c6.328-1.695,12.836,2.048,14.525,8.366l42.916,160.154
	c1.69,6.313-2.063,12.81-8.402,14.51l-229.274,61.43c-6.328,1.7-12.836-2.048-14.531-8.366L92.877,189.281
	C91.187,182.973,94.945,176.471,101.274,174.776z"/>
<path style="fill:#3F7490;" d="M357.76,169.027H122.737l-15.217,4.081c-3.082,2.806-5.048,6.799-5.048,11.279v40.694l33.321,124.36
	c1.695,6.313,8.202,10.066,14.531,8.366l229.274-61.43c6.333-1.7,10.092-8.197,8.402-14.51L357.76,169.027z"/>
<path style="fill:#F6F6F6;" d="M128.195,158.787h271.017c8.55,0,15.483,6.876,15.483,15.36v199.66c0,8.479-6.932,15.36-15.483,15.36
	H128.195c-8.556,0-15.483-6.881-15.483-15.36v-199.66C112.712,165.663,119.639,158.787,128.195,158.787L128.195,158.787z"/>
<path style="fill:#A3E0F5;" d="M144.942,179.154h237.363c6.554,0,11.868,5.304,11.868,11.843v165.801
	c0,6.538-5.315,11.837-11.868,11.837H144.942c-6.554,0-11.868-5.299-11.868-11.837V190.996
	C133.069,184.453,138.383,179.154,144.942,179.154L144.942,179.154z"/>
<path style="fill:#3DB39E;" d="M153.626,312.264c-7.112,0-13.972,0.594-20.557,1.603v42.926c0,6.538,5.315,11.837,11.868,11.837
	h89.508c0.671-2.509,1.121-5.064,1.121-7.69C235.571,334.065,198.881,312.264,153.626,312.264L153.626,312.264z"/>
<path style="fill:#4BC2AD;" d="M394.173,356.797v-63.744c-15.862-4.081-33.265-6.333-51.533-6.333
	c-73.733,0-133.514,36.68-133.514,81.92h173.179C388.859,368.635,394.173,363.336,394.173,356.797z"/>
<path style="fill:#EFC75E;" d="M133.069,190.996v59.31c2.519,0.302,5.064,0.502,7.665,0.502c35.343,0,63.995-28.636,63.995-63.964
	c0-2.606-0.205-5.166-0.507-7.69h-59.279C138.383,179.154,133.069,184.453,133.069,190.996z"/>
<g>
</g>
<g>
</g>
<g>
</g>
<g>
</g>
<g>
</g>
<g>
</g>
<g>
</g>
<g>
</g>
<g>
</g>
<g>
</g>
<g>
</g>
<g>
</g>
<g>
</g>
<g>
</g>
<g>
</g>
</svg>
