<?xml version="1.0" encoding="utf-8"?>
<!-- Generator: Adobe Illustrator 16.0.4, SVG Export Plug-In . SVG Version: 6.00 Build 0)  -->
<!DOCTYPE svg PUBLIC "-//W3C//DTD SVG 1.1//EN" "http://www.w3.org/Graphics/SVG/1.1/DTD/svg11.dtd">
<svg version="1.1" id="gr_x5F_icon04_x5F_imageOptimize"
	 xmlns="http://www.w3.org/2000/svg" xmlns:xlink="http://www.w3.org/1999/xlink" x="0px" y="0px" width="250px" height="250px"
	 viewBox="0 0 250 250" enable-background="new 0 0 250 250" xml:space="preserve">
<g id="gr_x5F_big_3_">
	<path id="gr_192_" fill="#F3BA48" d="M237.666,172.7c0,9.541-6.76,21.249-15.021,26.017l-82.625,47.705
		c-8.258,4.771-21.781,4.771-30.042,0l-82.621-47.705c-8.263-4.768-15.021-16.476-15.021-26.017V77.297
		c0-9.541,6.759-21.249,15.021-26.019l82.621-47.702c8.262-4.771,21.785-4.771,30.042,0l82.625,47.702
		c8.262,4.77,15.021,16.478,15.021,26.019V172.7z"/>
	<g>
		<g>
			<path fill="#FFFFFF" d="M97.871,71.914c0.722-5.877,6.069-10.057,11.945-9.335l68.268,8.384
				c5.881,0.72,10.059,6.069,9.334,11.944l-10.014,81.571c-0.721,5.875-6.072,10.053-11.945,9.331l-68.272-8.381
				c-5.873-0.722-10.048-6.07-9.329-11.945L97.871,71.914z"/>
			<path fill="#F3BA48" d="M105.401,69.237l-9.257,75.36l75.364,9.253l9.256-75.36L105.401,69.237z"/>
		</g>
		<g>
			<path fill="#FFFFFF" d="M162.139,167.091c0.723,5.875-3.453,11.223-9.326,11.943l-68.275,8.383
				c-5.874,0.722-11.224-3.455-11.942-9.331L62.579,96.515c-0.722-5.874,3.456-11.224,9.333-11.944l68.268-8.384
				c5.881-0.72,11.225,3.458,11.949,9.333L162.139,167.091z"/>
			<path fill="#F3BA48" d="M69.237,92.098l9.253,75.362l75.362-9.255l-9.256-75.362L69.237,92.098z M113.911,144.427
				c-1.946,0.239-24.386-11.988-25.914-24.456c-1.492-12.139,13.323-16.92,21.282-8.817c0.217,0.216,0.472,0.572,0.614,0.555
				c0.153-0.02,0.297-0.412,0.45-0.671c5.762-9.806,21.303-8.752,22.792,3.392C134.67,126.896,115.836,144.191,113.911,144.427z"/>
		</g>
	</g>
</g>
</svg>
